<svg width="24" height="20" viewBox="0 0 24 20" fill="none" xmlns="http://www.w3.org/2000/svg">
<path d="M12.4869 1.3173L13.4696 0.309278C13.9162 -0.103093 14.5863 -0.103093 14.9883 0.309278L23.6985 9.19817C24.1005 9.65636 24.1005 10.3436 23.6985 10.756L14.9883 19.6907C14.5863 20.1031 13.9162 20.1031 13.4696 19.6907L12.4869 18.6827C12.0849 18.2245 12.0849 17.5372 12.4869 17.079L17.8917 11.8099H1.07203C0.446678 11.8099 0 11.3517 0 10.7102V9.24399C0 8.64834 0.446678 8.14433 1.07203 8.14433H17.8917L12.4869 2.92096C12.0849 2.46277 12.0402 1.77549 12.4869 1.3173Z" fill="#303536"/>
</svg>
