<svg width="146" height="49" viewBox="0 0 146 49" fill="none" xmlns="http://www.w3.org/2000/svg">
<path d="M13.2775 23.2072C14.0998 20.1389 17.2537 16.985 20.322 16.1628L39.4509 11.0364C42.5192 10.2141 44.3399 12.0349 43.5177 15.1032L38.3913 34.2321C37.569 37.3004 34.4151 40.4543 31.3469 41.2766L12.2179 46.4029C9.14963 47.2252 7.32888 45.4045 8.15115 42.3362L13.2775 23.2072Z" fill="#98A2B3"/>
<path d="M5.60885 15.5383C6.43111 12.47 9.58501 9.31609 12.6533 8.49382L31.7823 3.36746C34.8505 2.54519 36.6713 4.36594 35.849 7.43421L30.7227 26.5632C29.9004 29.6315 26.7465 32.7854 23.6782 33.6076L4.54923 38.734C1.48096 39.5563 -0.339786 37.7355 0.482479 34.6672L5.60885 15.5383Z" fill="#667085"/>
<path d="M61.292 32.313H67.872V34.889H58.1V15.429H61.292V32.313Z" fill="#475467"/>
<path d="M69.4774 27.105C69.4774 25.5556 69.7947 24.1836 70.4294 22.989C71.0827 21.7943 71.9601 20.8703 73.0614 20.217C74.1814 19.545 75.4134 19.209 76.7574 19.209C77.9707 19.209 79.0254 19.4516 79.9214 19.937C80.8361 20.4036 81.5641 20.9916 82.1054 21.701V19.461H85.3254V34.889H82.1054V32.593C81.5641 33.321 80.8267 33.9276 79.8934 34.413C78.9601 34.8983 77.8961 35.141 76.7014 35.141C75.3761 35.141 74.1627 34.805 73.0614 34.133C71.9601 33.4423 71.0827 32.4903 70.4294 31.277C69.7947 30.045 69.4774 28.6543 69.4774 27.105ZM82.1054 27.161C82.1054 26.097 81.8814 25.173 81.4334 24.389C81.0041 23.605 80.4347 23.0076 79.7254 22.597C79.0161 22.1863 78.2507 21.981 77.4294 21.981C76.6081 21.981 75.8427 22.1863 75.1334 22.597C74.4241 22.989 73.8454 23.577 73.3974 24.361C72.9681 25.1263 72.7534 26.041 72.7534 27.105C72.7534 28.169 72.9681 29.1023 73.3974 29.905C73.8454 30.7076 74.4241 31.3236 75.1334 31.753C75.8614 32.1636 76.6267 32.369 77.4294 32.369C78.2507 32.369 79.0161 32.1636 79.7254 31.753C80.4347 31.3423 81.0041 30.745 81.4334 29.961C81.8814 29.1583 82.1054 28.225 82.1054 27.161Z" fill="#475467"/>
<path d="M103.406 19.461L93.942 42.141H90.638L93.774 34.637L87.698 19.461H91.254L95.594 31.221L100.102 19.461H103.406Z" fill="#475467"/>
<path d="M119.955 26.797C119.955 27.3756 119.918 27.8983 119.843 28.365H108.055C108.148 29.597 108.606 30.5863 109.427 31.333C110.248 32.0796 111.256 32.453 112.451 32.453C114.168 32.453 115.382 31.7343 116.091 30.297H119.535C119.068 31.7156 118.219 32.8823 116.987 33.797C115.774 34.693 114.262 35.141 112.451 35.141C110.976 35.141 109.651 34.8143 108.475 34.161C107.318 33.489 106.403 32.5556 105.731 31.361C105.078 30.1476 104.751 28.7476 104.751 27.161C104.751 25.5743 105.068 24.1836 105.703 22.989C106.356 21.7756 107.262 20.8423 108.419 20.189C109.595 19.5356 110.939 19.209 112.451 19.209C113.907 19.209 115.204 19.5263 116.343 20.161C117.482 20.7956 118.368 21.6916 119.003 22.849C119.638 23.9876 119.955 25.3036 119.955 26.797ZM116.623 25.789C116.604 24.613 116.184 23.6703 115.363 22.961C114.542 22.2516 113.524 21.897 112.311 21.897C111.21 21.897 110.267 22.2516 109.483 22.961C108.699 23.6516 108.232 24.5943 108.083 25.789H116.623Z" fill="#475467"/>
<path d="M126.288 21.701C126.755 20.917 127.371 20.3103 128.136 19.881C128.92 19.433 129.844 19.209 130.908 19.209V22.513H130.096C128.845 22.513 127.893 22.8303 127.24 23.465C126.605 24.0996 126.288 25.201 126.288 26.769V34.889H123.096V19.461H126.288V21.701Z" fill="#475467"/>
<path d="M139.442 35.141C138.229 35.141 137.137 34.9263 136.166 34.497C135.214 34.049 134.458 33.4516 133.898 32.705C133.338 31.9396 133.04 31.0903 133.002 30.157H136.306C136.362 30.8103 136.67 31.361 137.23 31.809C137.809 32.2383 138.528 32.453 139.386 32.453C140.282 32.453 140.973 32.285 141.458 31.949C141.962 31.5943 142.214 31.1463 142.214 30.605C142.214 30.0263 141.934 29.597 141.374 29.317C140.833 29.037 139.965 28.729 138.77 28.393C137.613 28.0756 136.67 27.7676 135.942 27.469C135.214 27.1703 134.58 26.713 134.038 26.097C133.516 25.481 133.254 24.669 133.254 23.661C133.254 22.8396 133.497 22.093 133.982 21.421C134.468 20.7303 135.158 20.189 136.054 19.797C136.969 19.405 138.014 19.209 139.19 19.209C140.945 19.209 142.354 19.657 143.418 20.553C144.501 21.4303 145.08 22.6343 145.154 24.165H141.962C141.906 23.4743 141.626 22.9236 141.122 22.513C140.618 22.1023 139.937 21.897 139.078 21.897C138.238 21.897 137.594 22.0556 137.146 22.373C136.698 22.6903 136.474 23.1103 136.474 23.633C136.474 24.0436 136.624 24.389 136.922 24.669C137.221 24.949 137.585 25.173 138.014 25.341C138.444 25.4903 139.078 25.6863 139.918 25.929C141.038 26.2276 141.953 26.5356 142.662 26.853C143.39 27.1516 144.016 27.5996 144.538 28.197C145.061 28.7943 145.332 29.5876 145.35 30.577C145.35 31.4543 145.108 32.2383 144.622 32.929C144.137 33.6196 143.446 34.161 142.55 34.553C141.673 34.945 140.637 35.141 139.442 35.141Z" fill="#475467"/>
</svg>
