<svg width="170" height="49" viewBox="0 0 170 49" fill="none" xmlns="http://www.w3.org/2000/svg">
<rect x="0.25" y="20.0889" width="9.59998" height="9.59999" fill="#667085"/>
<rect x="29.05" y="29.689" width="9.6" height="9.59999" transform="rotate(180 29.05 29.689)" fill="#667085"/>
<path d="M9.84998 20.089L19.45 10.489V20.089L9.84998 29.689V20.089Z" fill="#D0D5DD"/>
<path d="M19.45 29.6888L9.84997 39.2888L9.84997 29.6888L19.45 20.0888L19.45 29.6888Z" fill="#98A2B3"/>
<path d="M0.25 20.0889L19.45 0.888916V10.4889L9.84998 20.0889H0.25Z" fill="#667085"/>
<path d="M29.0499 29.6889L9.84995 48.8889L9.84995 39.2889L19.4499 29.6889L29.0499 29.6889Z" fill="#667085"/>
<path d="M49.958 35.169C48.446 35.169 46.9806 34.9543 45.562 34.525C44.162 34.0956 43.0513 33.5263 42.23 32.817L43.49 29.989C44.2926 30.6236 45.2726 31.1463 46.43 31.557C47.606 31.949 48.782 32.145 49.958 32.145C51.414 32.145 52.4966 31.9116 53.206 31.445C53.934 30.9783 54.298 30.3623 54.298 29.597C54.298 29.037 54.0926 28.5796 53.682 28.225C53.29 27.8516 52.786 27.5623 52.17 27.3569C51.554 27.1516 50.714 26.9183 49.65 26.657C48.1566 26.3023 46.9433 25.9476 46.01 25.593C45.0953 25.2383 44.302 24.6876 43.63 23.9409C42.9766 23.1756 42.65 22.1489 42.65 20.8609C42.65 19.7783 42.9393 18.7983 43.518 17.9209C44.1153 17.0249 45.002 16.3156 46.178 15.7929C47.3726 15.2703 48.8286 15.0089 50.546 15.0089C51.7406 15.0089 52.9166 15.1583 54.074 15.4569C55.2313 15.7556 56.23 16.1849 57.07 16.7449L55.922 19.5729C55.0633 19.0689 54.1673 18.6863 53.234 18.425C52.3006 18.1636 51.3953 18.0329 50.518 18.0329C49.0806 18.0329 48.0073 18.2756 47.298 18.7609C46.6073 19.2463 46.262 19.8903 46.262 20.6929C46.262 21.2529 46.458 21.7103 46.85 22.0649C47.2606 22.4196 47.774 22.6996 48.39 22.9049C49.006 23.1103 49.846 23.3436 50.91 23.605C52.366 23.941 53.5606 24.2956 54.494 24.669C55.4273 25.0236 56.2206 25.5743 56.874 26.321C57.546 27.0676 57.882 28.0756 57.882 29.345C57.882 30.4276 57.5833 31.4076 56.986 32.285C56.4073 33.1623 55.5206 33.8623 54.326 34.385C53.1313 34.9076 51.6753 35.169 49.958 35.169Z" fill="#475467"/>
<path d="M61.1553 19.9369H64.6553V34.889H61.1553V19.9369ZM62.9193 17.4729C62.2847 17.4729 61.7527 17.2769 61.3233 16.8849C60.894 16.4743 60.6793 15.9703 60.6793 15.3729C60.6793 14.7756 60.894 14.2809 61.3233 13.8889C61.7527 13.4783 62.2847 13.2729 62.9193 13.2729C63.554 13.2729 64.086 13.4689 64.5153 13.8609C64.9447 14.2343 65.1593 14.7103 65.1593 15.2889C65.1593 15.9049 64.9447 16.4276 64.5153 16.8569C64.1047 17.2676 63.5727 17.4729 62.9193 17.4729Z" fill="#475467"/>
<path d="M73.8691 35.085C72.6558 35.085 71.4704 34.9263 70.3131 34.609C69.1558 34.2916 68.2318 33.8903 67.5411 33.405L68.8851 30.745C69.5571 31.193 70.3598 31.557 71.2931 31.837C72.2451 32.0983 73.1784 32.229 74.0931 32.229C76.1838 32.229 77.2291 31.6783 77.2291 30.577C77.2291 30.0543 76.9584 29.6903 76.4171 29.485C75.8944 29.2796 75.0451 29.0836 73.8691 28.897C72.6371 28.7103 71.6291 28.4956 70.8451 28.253C70.0798 28.0103 69.4078 27.5903 68.8291 26.993C68.2691 26.377 67.9891 25.5276 67.9891 24.445C67.9891 23.0263 68.5771 21.8969 69.7531 21.0569C70.9478 20.1983 72.5531 19.7689 74.5691 19.7689C75.5958 19.7689 76.6224 19.8903 77.6491 20.1329C78.6758 20.3569 79.5158 20.6649 80.1691 21.0569L78.8251 23.7169C77.5558 22.9703 76.1278 22.597 74.5411 22.597C73.5144 22.597 72.7304 22.7556 72.1891 23.0729C71.6664 23.3716 71.4051 23.7729 71.4051 24.277C71.4051 24.837 71.6851 25.2383 72.2451 25.4809C72.8238 25.705 73.7104 25.9196 74.9051 26.125C76.0998 26.3116 77.0798 26.5263 77.8451 26.769C78.6104 27.0116 79.2638 27.4223 79.8051 28.001C80.3651 28.5796 80.6451 29.401 80.6451 30.465C80.6451 31.865 80.0384 32.985 78.8251 33.825C77.6118 34.665 75.9598 35.085 73.8691 35.085Z" fill="#475467"/>
<path d="M97.3858 19.9369L90.3858 36.093C89.7325 37.717 88.9391 38.8556 88.0058 39.509C87.0725 40.181 85.9431 40.517 84.6178 40.517C83.8711 40.517 83.1338 40.3956 82.4058 40.153C81.6778 39.9103 81.0805 39.5743 80.6138 39.145L82.0138 36.569C82.3498 36.8863 82.7418 37.1383 83.1898 37.325C83.6565 37.5116 84.1231 37.605 84.5898 37.605C85.2058 37.605 85.7098 37.4463 86.1018 37.129C86.5125 36.8116 86.8858 36.2796 87.2218 35.533L87.4738 34.945L80.9498 19.9369H84.5898L89.2938 30.997L94.0258 19.9369H97.3858Z" fill="#475467"/>
<path d="M107.861 19.7689C109.317 19.7689 110.615 20.0863 111.753 20.7209C112.911 21.3556 113.816 22.2516 114.469 23.409C115.123 24.5663 115.449 25.901 115.449 27.413C115.449 28.925 115.123 30.269 114.469 31.445C113.816 32.6023 112.911 33.4983 111.753 34.133C110.615 34.7676 109.317 35.085 107.861 35.085C105.845 35.085 104.249 34.413 103.073 33.069V40.321H99.5733V19.9369H102.905V21.8969C103.484 21.1876 104.193 20.6556 105.033 20.3009C105.892 19.9463 106.835 19.7689 107.861 19.7689ZM107.469 32.089C108.757 32.089 109.812 31.6596 110.633 30.801C111.473 29.9423 111.893 28.813 111.893 27.413C111.893 26.013 111.473 24.8836 110.633 24.025C109.812 23.1663 108.757 22.737 107.469 22.737C106.629 22.737 105.873 22.933 105.201 23.325C104.529 23.6983 103.997 24.2396 103.605 24.949C103.213 25.6583 103.017 26.4796 103.017 27.413C103.017 28.3463 103.213 29.1676 103.605 29.877C103.997 30.5863 104.529 31.137 105.201 31.529C105.873 31.9023 106.629 32.089 107.469 32.089Z" fill="#475467"/>
<path d="M127.253 19.7689C129.138 19.7689 130.65 20.3196 131.789 21.4209C132.927 22.5223 133.497 24.1556 133.497 26.321V34.889H129.997V26.769C129.997 25.4623 129.689 24.4823 129.073 23.829C128.457 23.1569 127.579 22.8209 126.441 22.8209C125.153 22.8209 124.135 23.2129 123.389 23.9969C122.642 24.7623 122.269 25.873 122.269 27.329V34.889H118.769V14.1129H122.269V21.6729C122.847 21.057 123.557 20.5903 124.397 20.273C125.255 19.9369 126.207 19.7689 127.253 19.7689Z" fill="#475467"/>
<path d="M152.413 19.9369V34.889H149.081V32.985C148.521 33.657 147.821 34.1796 146.981 34.553C146.141 34.9076 145.235 35.085 144.265 35.085C142.267 35.085 140.69 34.5343 139.533 33.433C138.394 32.313 137.825 30.661 137.825 28.477V19.9369H141.325V28.001C141.325 29.345 141.623 30.353 142.221 31.025C142.837 31.6783 143.705 32.005 144.825 32.005C146.075 32.005 147.065 31.6223 147.793 30.857C148.539 30.073 148.913 28.953 148.913 27.497V19.9369H152.413Z" fill="#475467"/>
<path d="M161.615 35.085C160.402 35.085 159.216 34.9263 158.059 34.609C156.902 34.2916 155.978 33.8903 155.287 33.405L156.631 30.745C157.303 31.193 158.106 31.557 159.039 31.837C159.991 32.0983 160.924 32.229 161.839 32.229C163.93 32.229 164.975 31.6783 164.975 30.577C164.975 30.0543 164.704 29.6903 164.163 29.485C163.64 29.2796 162.791 29.0836 161.615 28.897C160.383 28.7103 159.375 28.4956 158.591 28.253C157.826 28.0103 157.154 27.5903 156.575 26.993C156.015 26.377 155.735 25.5276 155.735 24.445C155.735 23.0263 156.323 21.8969 157.499 21.0569C158.694 20.1983 160.299 19.7689 162.315 19.7689C163.342 19.7689 164.368 19.8903 165.395 20.1329C166.422 20.3569 167.262 20.6649 167.915 21.0569L166.571 23.7169C165.302 22.9703 163.874 22.597 162.287 22.597C161.26 22.597 160.476 22.7556 159.935 23.0729C159.412 23.3716 159.151 23.7729 159.151 24.277C159.151 24.837 159.431 25.2383 159.991 25.4809C160.57 25.705 161.456 25.9196 162.651 26.125C163.846 26.3116 164.826 26.5263 165.591 26.769C166.356 27.0116 167.01 27.4223 167.551 28.001C168.111 28.5796 168.391 29.401 168.391 30.465C168.391 31.865 167.784 32.985 166.571 33.825C165.358 34.665 163.706 35.085 161.615 35.085Z" fill="#475467"/>
</svg>
