<svg width="187" height="49" viewBox="0 0 187 49" fill="none" xmlns="http://www.w3.org/2000/svg">
<path fill-rule="evenodd" clip-rule="evenodd" d="M22 37.3556C28.8851 37.3556 34.4667 31.7741 34.4667 24.8889C34.4667 18.0038 28.8851 12.4222 22 12.4222C15.1148 12.4222 9.53333 18.0038 9.53333 24.8889C9.53333 31.7741 15.1148 37.3556 22 37.3556ZM22 46.8889C34.1503 46.8889 44 37.0392 44 24.8889C44 12.7387 34.1503 2.88892 22 2.88892C9.84973 2.88892 0 12.7387 0 24.8889C0 37.0392 9.84973 46.8889 22 46.8889Z" fill="#667085"/>
<path d="M22.2517 25.3705C24.5427 23.0795 28.2573 23.0795 30.5484 25.3705L41.9564 36.7785C44.2474 39.0696 44.2474 42.7842 41.9564 45.0752V45.0752C39.6653 47.3663 35.9507 47.3663 33.6597 45.0752L22.2517 33.6673C19.9606 31.3762 19.9606 27.6616 22.2517 25.3705V25.3705Z" fill="#98A2B3"/>
<path d="M25.455 36.8707L32.7003 44.1161C36.1755 42.1779 39.0708 39.3249 41.0604 35.8827L33.8745 28.6968C32.6122 32.6362 29.444 35.7225 25.455 36.8707Z" fill="#667085"/>
<path d="M79.52 36.989C78.8854 37.773 78.1107 38.3704 77.196 38.781C76.3 39.1917 75.3107 39.397 74.228 39.397C72.772 39.397 71.456 39.0797 70.28 38.445C69.104 37.829 67.76 36.7277 66.248 35.141C64.4747 34.917 62.888 34.3477 61.488 33.433C60.1067 32.5184 59.024 31.3424 58.24 29.905C57.4747 28.449 57.092 26.8437 57.092 25.089C57.092 23.1664 57.5494 21.4397 58.464 19.909C59.3974 18.3597 60.676 17.1464 62.3 16.269C63.9427 15.3917 65.7814 14.953 67.816 14.953C69.8507 14.953 71.68 15.3917 73.304 16.269C74.928 17.1464 76.2067 18.3597 77.14 19.909C78.0734 21.4397 78.54 23.1664 78.54 25.089C78.54 27.3664 77.896 29.3637 76.608 31.081C75.3387 32.7984 73.6494 33.993 71.54 34.665C72.0067 35.1504 72.4547 35.4957 72.884 35.701C73.332 35.925 73.808 36.037 74.312 36.037C75.5254 36.037 76.5894 35.5517 77.504 34.581L79.52 36.989ZM61.684 25.089C61.684 26.3024 61.9454 27.385 62.468 28.337C63.0094 29.289 63.7467 30.0357 64.68 30.577C65.6134 31.0997 66.6587 31.361 67.816 31.361C68.9734 31.361 70.0187 31.0997 70.952 30.577C71.8854 30.0357 72.6134 29.289 73.136 28.337C73.6774 27.385 73.948 26.3024 73.948 25.089C73.948 23.8757 73.6774 22.793 73.136 21.841C72.6134 20.889 71.8854 20.1517 70.952 19.629C70.0187 19.0877 68.9734 18.817 67.816 18.817C66.6587 18.817 65.6134 19.0877 64.68 19.629C63.7467 20.1517 63.0094 20.889 62.468 21.841C61.9454 22.793 61.684 23.8757 61.684 25.089Z" fill="#475467"/>
<path d="M96.817 19.825V34.889H92.673V33.097C92.0944 33.7504 91.4037 34.2544 90.601 34.609C89.7984 34.945 88.9304 35.113 87.997 35.113C86.0184 35.113 84.4504 34.5437 83.293 33.405C82.1357 32.2664 81.557 30.577 81.557 28.337V19.825H85.925V27.693C85.925 30.1197 86.9424 31.333 88.977 31.333C90.0224 31.333 90.8624 30.997 91.497 30.325C92.1317 29.6344 92.449 28.617 92.449 27.273V19.825H96.817Z" fill="#475467"/>
<path d="M108.032 35.113C106.445 35.113 105.017 34.7864 103.748 34.133C102.497 33.461 101.517 32.537 100.808 31.361C100.098 30.185 99.7437 28.8504 99.7437 27.357C99.7437 25.8637 100.098 24.529 100.808 23.353C101.517 22.177 102.497 21.2624 103.748 20.609C105.017 19.937 106.445 19.601 108.032 19.601C109.618 19.601 111.037 19.937 112.288 20.609C113.538 21.2624 114.518 22.177 115.228 23.353C115.937 24.529 116.292 25.8637 116.292 27.357C116.292 28.8504 115.937 30.185 115.228 31.361C114.518 32.537 113.538 33.461 112.288 34.133C111.037 34.7864 109.618 35.113 108.032 35.113ZM108.032 31.529C109.152 31.529 110.066 31.1557 110.776 30.409C111.504 29.6437 111.868 28.6264 111.868 27.357C111.868 26.0877 111.504 25.0797 110.776 24.333C110.066 23.5677 109.152 23.185 108.032 23.185C106.912 23.185 105.988 23.5677 105.26 24.333C104.532 25.0797 104.168 26.0877 104.168 27.357C104.168 28.6264 104.532 29.6437 105.26 30.409C105.988 31.1557 106.912 31.529 108.032 31.529Z" fill="#475467"/>
<path d="M128.927 34.161C128.498 34.4784 127.966 34.721 127.331 34.889C126.715 35.0384 126.062 35.113 125.371 35.113C123.579 35.113 122.189 34.6557 121.199 33.741C120.229 32.8264 119.743 31.4824 119.743 29.709V23.521H117.419V20.161H119.743V16.493H124.111V20.161H127.863V23.521H124.111V29.653C124.111 30.2877 124.27 30.7824 124.587 31.137C124.923 31.473 125.39 31.641 125.987 31.641C126.678 31.641 127.266 31.4544 127.751 31.081L128.927 34.161Z" fill="#475467"/>
<path d="M131.379 19.825H135.747V34.889H131.379V19.825ZM133.563 17.725C132.761 17.725 132.107 17.4917 131.603 17.025C131.099 16.5584 130.847 15.9797 130.847 15.289C130.847 14.5984 131.099 14.0197 131.603 13.553C132.107 13.0864 132.761 12.853 133.563 12.853C134.366 12.853 135.019 13.077 135.523 13.525C136.027 13.973 136.279 14.533 136.279 15.205C136.279 15.933 136.027 16.5397 135.523 17.025C135.019 17.4917 134.366 17.725 133.563 17.725Z" fill="#475467"/>
<path d="M154.557 27.413C154.557 27.469 154.529 27.861 154.473 28.589H143.077C143.283 29.5224 143.768 30.2597 144.533 30.801C145.299 31.3424 146.251 31.613 147.389 31.613C148.173 31.613 148.864 31.501 149.461 31.277C150.077 31.0344 150.647 30.661 151.169 30.157L153.493 32.677C152.075 34.301 150.003 35.113 147.277 35.113C145.579 35.113 144.076 34.7864 142.769 34.133C141.463 33.461 140.455 32.537 139.745 31.361C139.036 30.185 138.681 28.8504 138.681 27.357C138.681 25.8824 139.027 24.557 139.717 23.381C140.427 22.1864 141.388 21.2624 142.601 20.609C143.833 19.937 145.205 19.601 146.717 19.601C148.192 19.601 149.527 19.9184 150.721 20.553C151.916 21.1877 152.849 22.1024 153.521 23.297C154.212 24.473 154.557 25.845 154.557 27.413ZM146.745 22.905C145.756 22.905 144.925 23.185 144.253 23.745C143.581 24.305 143.171 25.0704 143.021 26.041H150.441C150.292 25.089 149.881 24.333 149.209 23.773C148.537 23.1944 147.716 22.905 146.745 22.905Z" fill="#475467"/>
<path d="M166.621 19.601C168.488 19.601 169.991 20.161 171.129 21.281C172.287 22.401 172.865 24.0624 172.865 26.265V34.889H168.497V26.937C168.497 25.7424 168.236 24.8557 167.713 24.277C167.191 23.6797 166.435 23.381 165.445 23.381C164.344 23.381 163.467 23.7264 162.813 24.417C162.16 25.089 161.833 26.097 161.833 27.441V34.889H157.465V19.825H161.637V21.589C162.216 20.9544 162.935 20.469 163.793 20.133C164.652 19.7784 165.595 19.601 166.621 19.601Z" fill="#475467"/>
<path d="M186.541 34.161C186.111 34.4784 185.579 34.721 184.945 34.889C184.329 35.0384 183.675 35.113 182.985 35.113C181.193 35.113 179.802 34.6557 178.813 33.741C177.842 32.8264 177.357 31.4824 177.357 29.709V23.521H175.033V20.161H177.357V16.493H181.725V20.161H185.477V23.521H181.725V29.653C181.725 30.2877 181.883 30.7824 182.201 31.137C182.537 31.473 183.003 31.641 183.601 31.641C184.291 31.641 184.879 31.4544 185.365 31.081L186.541 34.161Z" fill="#475467"/>
</svg>
