<svg width="184" height="49" viewBox="0 0 184 49" fill="none" xmlns="http://www.w3.org/2000/svg">
<path d="M16.2143 34.3176C24.893 34.3176 31.9285 27.2821 31.9285 18.6033C31.9285 17.6197 31.8382 16.6572 31.6653 15.7237C30.7318 15.5508 29.7693 15.4604 28.7857 15.4604C20.1069 15.4604 13.0714 22.496 13.0714 31.1747C13.0714 32.1583 13.1618 33.1208 13.3347 34.0543C14.2682 34.2272 15.2307 34.3176 16.2143 34.3176Z" fill="#667085"/>
<path fill-rule="evenodd" clip-rule="evenodd" d="M13.3347 34.0542C6.03118 32.7017 0.5 26.2984 0.5 18.6032C0.5 9.92444 7.53553 2.88892 16.2143 2.88892C23.9095 2.88892 30.3128 8.42009 31.6653 15.7236C30.7318 15.5507 29.7693 15.4603 28.7857 15.4603C20.107 15.4603 13.0714 22.4959 13.0714 31.1746C13.0714 32.1582 13.1618 33.1207 13.3347 34.0542Z" fill="#667085"/>
<path fill-rule="evenodd" clip-rule="evenodd" d="M16.2142 34.3175C24.893 34.3175 31.9285 27.282 31.9285 18.6032C31.9285 17.6196 31.8381 16.6572 31.6652 15.7236C38.9687 17.0762 44.4999 23.4795 44.4999 31.1747C44.4999 39.8534 37.4644 46.889 28.7856 46.889C21.0905 46.889 14.6872 41.3578 13.3346 34.0543C14.2681 34.2272 15.2306 34.3175 16.2142 34.3175Z" fill="#98A2B3"/>
<path d="M74.728 29.7928C74.168 31.6035 73.188 32.9568 71.788 33.8528C70.388 34.7302 68.7547 35.1688 66.888 35.1688C65.0587 35.1688 63.472 34.7862 62.128 34.0208C60.8027 33.2555 59.776 32.1635 59.048 30.7448C58.3387 29.3262 57.984 27.6275 57.984 25.6488C57.984 23.6702 58.348 21.9715 59.076 20.5528C59.804 19.1342 60.8307 18.0422 62.156 17.2768C63.4813 16.5115 65.04 16.1288 66.832 16.1288C68.7173 16.1288 70.332 16.5302 71.676 17.3328C73.0387 18.1168 73.972 19.3115 74.476 20.9168L70.976 22.4008C70.6587 21.2808 70.1733 20.4875 69.52 20.0208C68.8667 19.5355 68.0267 19.2928 67 19.2928C65.4693 19.2928 64.2467 19.8435 63.332 20.9448C62.436 22.0275 61.988 23.5955 61.988 25.6488C61.988 27.6835 62.4173 29.2515 63.276 30.3528C64.1347 31.4542 65.376 32.0048 67 32.0048C68.008 32.0048 68.876 31.7342 69.604 31.1928C70.3507 30.6515 70.8733 29.8302 71.172 28.7288L74.728 29.7928Z" fill="#475467"/>
<path d="M79.5613 18.8728C77.9746 18.8728 77.1813 18.1915 77.1813 16.8288C77.1813 15.4475 77.9746 14.7568 79.5613 14.7568C81.148 14.7568 81.9413 15.4475 81.9413 16.8288C81.9413 18.1915 81.148 18.8728 79.5613 18.8728ZM81.4653 20.8888V34.8888H77.6293V20.8888H81.4653Z" fill="#475467"/>
<path d="M85.5316 34.8888V20.8888H88.8636L89.1156 23.6328C89.4703 22.6808 90.0023 21.9435 90.7116 21.4208C91.4396 20.8795 92.3543 20.6088 93.4556 20.6088C94.109 20.6088 94.613 20.7115 94.9676 20.9168L94.5196 24.1368C94.333 24.0808 94.0996 24.0342 93.8196 23.9968C93.5583 23.9408 93.213 23.9128 92.7836 23.9128C92.205 23.9128 91.6543 24.0528 91.1316 24.3328C90.6276 24.5942 90.2076 25.0048 89.8716 25.5648C89.5356 26.1062 89.3676 26.7968 89.3676 27.6368V34.8888H85.5316Z" fill="#475467"/>
<path d="M103.427 20.6088C105.293 20.6088 106.74 21.0102 107.767 21.8128C108.812 22.6155 109.503 23.5862 109.839 24.7248L106.255 26.0128C105.881 24.3142 104.957 23.4648 103.483 23.4648C102.419 23.4648 101.588 23.8382 100.991 24.5848C100.412 25.3315 100.123 26.4422 100.123 27.9168C100.123 29.4102 100.421 30.5208 101.019 31.2488C101.635 31.9582 102.465 32.3128 103.511 32.3128C105.135 32.3128 106.105 31.4822 106.423 29.8208L109.895 30.9408C109.577 32.1915 108.868 33.2088 107.767 33.9928C106.684 34.7768 105.275 35.1688 103.539 35.1688C102.083 35.1688 100.804 34.8795 99.7027 34.3008C98.62 33.7222 97.78 32.8915 97.1827 31.8088C96.5854 30.7262 96.2867 29.4195 96.2867 27.8888C96.2867 26.3582 96.5854 25.0515 97.1827 23.9688C97.7987 22.8862 98.6387 22.0555 99.7027 21.4768C100.785 20.8982 102.027 20.6088 103.427 20.6088Z" fill="#475467"/>
<path d="M119.259 20.6088C120.659 20.6088 121.901 20.8982 122.983 21.4768C124.066 22.0555 124.906 22.8862 125.503 23.9688C126.119 25.0515 126.427 26.3582 126.427 27.8888C126.427 29.4195 126.119 30.7262 125.503 31.8088C124.906 32.8915 124.066 33.7222 122.983 34.3008C121.901 34.8795 120.659 35.1688 119.259 35.1688C117.841 35.1688 116.59 34.8795 115.507 34.3008C114.443 33.7222 113.603 32.8915 112.987 31.8088C112.39 30.7262 112.091 29.4195 112.091 27.8888C112.091 26.3582 112.39 25.0515 112.987 23.9688C113.603 22.8862 114.443 22.0555 115.507 21.4768C116.59 20.8982 117.841 20.6088 119.259 20.6088ZM119.259 23.4648C118.214 23.4648 117.393 23.8382 116.795 24.5848C116.217 25.3128 115.927 26.4142 115.927 27.8888C115.927 29.3635 116.217 30.4742 116.795 31.2208C117.393 31.9488 118.214 32.3128 119.259 32.3128C120.286 32.3128 121.089 31.9488 121.667 31.2208C122.265 30.4742 122.563 29.3635 122.563 27.8888C122.563 26.4142 122.265 25.3128 121.667 24.5848C121.089 23.8382 120.286 23.4648 119.259 23.4648Z" fill="#475467"/>
<path d="M136.021 20.6088C137.421 20.6088 138.662 20.8982 139.745 21.4768C140.828 22.0555 141.668 22.8862 142.265 23.9688C142.881 25.0515 143.189 26.3582 143.189 27.8888C143.189 29.4195 142.881 30.7262 142.265 31.8088C141.668 32.8915 140.828 33.7222 139.745 34.3008C138.662 34.8795 137.421 35.1688 136.021 35.1688C134.602 35.1688 133.352 34.8795 132.269 34.3008C131.205 33.7222 130.365 32.8915 129.749 31.8088C129.152 30.7262 128.853 29.4195 128.853 27.8888C128.853 26.3582 129.152 25.0515 129.749 23.9688C130.365 22.8862 131.205 22.0555 132.269 21.4768C133.352 20.8982 134.602 20.6088 136.021 20.6088ZM136.021 23.4648C134.976 23.4648 134.154 23.8382 133.557 24.5848C132.978 25.3128 132.689 26.4142 132.689 27.8888C132.689 29.3635 132.978 30.4742 133.557 31.2208C134.154 31.9488 134.976 32.3128 136.021 32.3128C137.048 32.3128 137.85 31.9488 138.429 31.2208C139.026 30.4742 139.325 29.3635 139.325 27.8888C139.325 26.4142 139.026 25.3128 138.429 24.5848C137.85 23.8382 137.048 23.4648 136.021 23.4648Z" fill="#475467"/>
<path d="M150.179 14.7568V30.5768C150.179 31.2302 150.291 31.6875 150.515 31.9488C150.739 32.2102 151.112 32.3408 151.635 32.3408C151.952 32.3408 152.213 32.3222 152.419 32.2848C152.624 32.2475 152.885 32.1728 153.203 32.0608L152.867 34.5808C152.549 34.7675 152.148 34.9075 151.663 35.0008C151.196 35.1128 150.729 35.1688 150.263 35.1688C148.9 35.1688 147.901 34.8422 147.267 34.1888C146.651 33.5168 146.343 32.4528 146.343 30.9968V14.7568H150.179Z" fill="#475467"/>
<path d="M161.836 35.1688C159.634 35.1688 157.87 34.5342 156.544 33.2648C155.219 31.9768 154.556 30.1848 154.556 27.8888C154.556 26.3582 154.855 25.0515 155.452 23.9688C156.05 22.8862 156.88 22.0555 157.944 21.4768C159.027 20.8982 160.259 20.6088 161.64 20.6088C163.059 20.6088 164.263 20.8982 165.252 21.4768C166.242 22.0368 166.998 22.8115 167.52 23.8008C168.043 24.7715 168.304 25.8822 168.304 27.1328C168.304 27.5062 168.295 27.8608 168.276 28.1968C168.258 28.5328 168.23 28.8315 168.192 29.0928H158.308C158.458 30.1755 158.831 30.9875 159.428 31.5288C160.044 32.0515 160.838 32.3128 161.808 32.3128C162.63 32.3128 163.292 32.1542 163.796 31.8368C164.3 31.5195 164.692 31.0808 164.972 30.5208L168.024 31.6968C167.576 32.7982 166.792 33.6568 165.672 34.2728C164.552 34.8702 163.274 35.1688 161.836 35.1688ZM161.612 23.4368C159.802 23.4368 158.71 24.4355 158.336 26.4328H164.636C164.524 25.4622 164.207 24.7248 163.684 24.2208C163.18 23.6982 162.49 23.4368 161.612 23.4368Z" fill="#475467"/>
<path d="M177.155 35.1688C175.736 35.1688 174.439 34.9168 173.263 34.4128C172.106 33.9088 171.163 33.1995 170.435 32.2848L172.647 30.0448C173.095 30.7168 173.692 31.2675 174.439 31.6968C175.186 32.1262 176.072 32.3408 177.099 32.3408C177.827 32.3408 178.406 32.2382 178.835 32.0328C179.283 31.8088 179.507 31.4635 179.507 30.9968C179.507 30.6982 179.404 30.4462 179.199 30.2408C178.994 30.0168 178.583 29.8395 177.967 29.7088L175.503 29.2048C173.879 28.8688 172.722 28.3648 172.031 27.6928C171.359 27.0022 171.023 26.1155 171.023 25.0328C171.023 24.2675 171.247 23.5488 171.695 22.8768C172.162 22.2048 172.852 21.6635 173.767 21.2528C174.682 20.8235 175.82 20.6088 177.183 20.6088C180.02 20.6088 182.055 21.4768 183.287 23.2128L180.991 25.4528C180.58 24.7995 180.039 24.3048 179.367 23.9688C178.714 23.6142 178.023 23.4368 177.295 23.4368C175.652 23.4368 174.831 23.8942 174.831 24.8088C174.831 25.1075 174.962 25.3688 175.223 25.5928C175.484 25.7982 175.96 25.9755 176.651 26.1248L179.507 26.7128C180.888 26.9928 181.878 27.4688 182.475 28.1408C183.072 28.7942 183.371 29.5875 183.371 30.5208C183.371 31.8648 182.83 32.9755 181.747 33.8528C180.683 34.7302 179.152 35.1688 177.155 35.1688Z" fill="#475467"/>
</svg>
