<svg width="161" height="49" viewBox="0 0 161 49" fill="none" xmlns="http://www.w3.org/2000/svg">
<path d="M22.75 2.88892C10.5997 2.88892 0.75 12.7387 0.75 24.8889C0.75 37.0392 10.5997 46.8889 22.75 46.8889C33.651 46.8889 42.7002 38.9605 44.4458 28.5556H44.2879C42.6598 34.8814 36.9174 39.5556 30.0833 39.5556C21.9832 39.5556 15.4167 32.9891 15.4167 24.8889C15.4167 16.7887 21.9832 10.2222 30.0833 10.2222C36.9174 10.2222 42.6598 14.8964 44.2879 21.2222H44.4458C42.7002 10.8173 33.651 2.88892 22.75 2.88892Z" fill="#98A2B3"/>
<path d="M0.75 24.8889C0.75 12.7387 10.5997 2.88892 22.75 2.88892C33.651 2.88892 42.7002 10.8173 44.4458 21.2222H29.6213C27.9931 14.8964 22.2507 10.2222 15.4167 10.2222C7.31649 10.2222 0.75 16.7887 0.75 24.8889Z" fill="#667085"/>
<path d="M0.75 24.8889C0.75 37.0392 10.5997 46.8889 22.75 46.8889C33.651 46.8889 42.7002 38.9605 44.4458 28.5556H29.6213C27.9931 34.8814 22.2507 39.5556 15.4167 39.5556C7.31649 39.5556 0.75 32.9891 0.75 24.8889Z" fill="#667085"/>
<path d="M76.1889 21.396C75.5625 16.8718 72.0824 14.2468 67.5682 14.2468C62.2486 14.2468 58.2415 18.1247 58.2415 24.7071C58.2415 31.2795 62.1988 35.1673 67.5682 35.1673C72.4105 35.1673 75.6221 32.0352 76.1889 28.1474L72.4701 28.1275C72.0028 30.5139 70.054 31.8562 67.6179 31.8562C64.3167 31.8562 61.9503 29.3804 61.9503 24.7071C61.9503 20.1133 64.2969 17.5579 67.6278 17.5579C70.1037 17.5579 72.0426 18.9599 72.4701 21.396H76.1889Z" fill="#475467"/>
<path d="M83.8029 35.1971C86.1992 35.1971 87.631 34.0735 88.2873 32.7909H88.4066V34.8889H91.8668V24.6673C91.8668 20.6303 88.5756 19.4173 85.6623 19.4173C82.4506 19.4173 79.9847 20.8491 79.1892 23.6332L82.55 24.1105C82.908 23.0664 83.9222 22.1715 85.6821 22.1715C87.3526 22.1715 88.2674 23.0267 88.2674 24.5281V24.5877C88.2674 25.6218 87.1836 25.6715 84.489 25.9599C81.5259 26.2781 78.6921 27.163 78.6921 30.6034C78.6921 33.6062 80.8895 35.1971 83.8029 35.1971ZM84.7375 32.5522C83.2361 32.5522 82.1623 31.8661 82.1623 30.5437C82.1623 29.1616 83.3654 28.5849 84.9762 28.3562C85.9208 28.2269 87.81 27.9883 88.2773 27.6105V29.4102C88.2773 31.1105 86.9052 32.5522 84.7375 32.5522Z" fill="#475467"/>
<path d="M103.113 19.6161H100.1V15.9571H96.5003V19.6161H94.3327V22.4002H96.5003V30.8917C96.4804 33.7653 98.5685 35.1772 101.273 35.0977C102.297 35.0679 103.003 34.869 103.391 34.7397L102.784 31.9258C102.586 31.9755 102.178 32.065 101.73 32.065C100.826 32.065 100.1 31.7468 100.1 30.2951V22.4002H103.113V19.6161Z" fill="#475467"/>
<path d="M110.518 35.1971C112.914 35.1971 114.346 34.0735 115.002 32.7909H115.121V34.8889H118.582V24.6673C118.582 20.6303 115.29 19.4173 112.377 19.4173C109.165 19.4173 106.7 20.8491 105.904 23.6332L109.265 24.1105C109.623 23.0664 110.637 22.1715 112.397 22.1715C114.067 22.1715 114.982 23.0267 114.982 24.5281V24.5877C114.982 25.6218 113.898 25.6715 111.204 25.9599C108.241 26.2781 105.407 27.163 105.407 30.6034C105.407 33.6062 107.604 35.1971 110.518 35.1971ZM111.452 32.5522C109.951 32.5522 108.877 31.8661 108.877 30.5437C108.877 29.1616 110.08 28.5849 111.691 28.3562C112.636 28.2269 114.525 27.9883 114.992 27.6105V29.4102C114.992 31.1105 113.62 32.5522 111.452 32.5522Z" fill="#475467"/>
<path d="M125.8 14.5252H122.201V34.8889H125.8V14.5252Z" fill="#475467"/>
<path d="M136.164 35.1872C140.638 35.1872 143.482 32.0352 143.482 27.3122C143.482 22.5792 140.638 19.4173 136.164 19.4173C131.689 19.4173 128.845 22.5792 128.845 27.3122C128.845 32.0352 131.689 35.1872 136.164 35.1872ZM136.184 32.3036C133.708 32.3036 132.495 30.0963 132.495 27.3022C132.495 24.5082 133.708 22.271 136.184 22.271C138.62 22.271 139.833 24.5082 139.833 27.3022C139.833 30.0963 138.62 32.3036 136.184 32.3036Z" fill="#475467"/>
<path d="M153.179 40.9343C157.305 40.9343 160.348 39.0451 160.348 35.1375V19.6161H156.798V22.1417H156.599C156.053 21.038 154.909 19.4173 152.214 19.4173C148.685 19.4173 145.91 22.1815 145.91 27.2028C145.91 32.1843 148.685 34.6701 152.204 34.6701C154.82 34.6701 156.043 33.2681 156.599 32.1446H156.778V35.038C156.778 37.2852 155.287 38.2099 153.239 38.2099C151.071 38.2099 150.116 37.1858 149.679 36.2909L146.437 37.0764C147.094 39.2142 149.291 40.9343 153.179 40.9343ZM153.209 31.8463C150.832 31.8463 149.579 29.9968 149.579 27.1829C149.579 24.4088 150.812 22.3704 153.209 22.3704C155.526 22.3704 156.798 24.2894 156.798 27.1829C156.798 30.0963 155.506 31.8463 153.209 31.8463Z" fill="#475467"/>
</svg>
