<svg width="215" height="30" viewBox="0 0 215 30" fill="none" xmlns="http://www.w3.org/2000/svg">
<path d="M22.2743 7.56133C20.9443 8.5343 16.6064 11.8732 15.9085 13.1975C15.5605 13.8358 15.6367 14.7006 15.6367 15.4844C18.7743 15.921 25.517 10.3971 22.2743 7.55925V7.56133Z" fill="#1B1B1B"/>
<path d="M8.77879 13.1788C9.9029 15.4366 11.0229 17.6923 12.1367 19.9418C12.3426 20.264 14.1276 22.4927 14.1276 22.4927H15.0314C15.2846 21.8462 15.5111 20.921 15.332 20.131L13.9258 17.2578C12.6452 14.3326 10.4114 8.30561 7.92026 6.22869C7.10085 5.5447 5.98703 5.5052 4.77233 5.43035C4.45116 6.34511 4.39145 8.00208 4.79704 8.89605C5.56292 10.5821 7.7782 11.6383 8.77673 13.1809L8.77879 13.1788Z" fill="#1B1B1B"/>
<path d="M0 0V27.921H27.6499V0H0ZM25.5231 25.7734H2.12676V2.14761H25.5231V25.7734Z" fill="#1B1B1B"/>
<path d="M49.6545 16.9002C49.4486 17.9792 49.1213 18.9563 48.6704 19.8274C48.2195 20.6985 47.6533 21.447 46.9678 22.0728C46.2822 22.6985 45.4895 23.1809 44.5898 23.5218C43.6901 23.8628 42.6957 24.0333 41.6087 24.0333C40.3878 24.0333 39.2493 23.8254 38.191 23.4075C37.1307 22.9917 36.2166 22.3659 35.4466 21.5322C34.6787 20.6985 34.0713 19.6715 33.6308 18.4491C33.1902 17.2266 32.9699 15.8004 32.9699 14.1725C32.9699 12.5447 33.1716 11.1476 33.5752 9.86902C33.9787 8.59043 34.5552 7.51143 35.3046 6.62993C36.056 5.74843 36.9681 5.07276 38.0469 4.59874C39.1257 4.12681 40.3301 3.88773 41.6643 3.88773C42.8275 3.88773 43.8816 4.06236 44.8287 4.41371C45.7757 4.76506 46.591 5.24947 47.2766 5.86278C47.9622 6.47816 48.5036 7.20373 48.9092 8.03534C49.3128 8.86901 49.5598 9.75883 49.6545 10.7069H45.7428C45.4813 9.62785 44.9748 8.79001 44.2234 8.19334C43.4719 7.59667 42.6298 7.29937 41.691 7.29937C40.0584 7.29937 38.8581 7.89188 38.0902 9.07484C37.3222 10.2599 36.9372 11.8836 36.9372 13.948C36.9372 16.0125 37.316 17.684 38.0757 18.8503C38.8354 20.0145 39.974 20.5967 41.4934 20.5967C42.6566 20.5967 43.5892 20.2786 44.2934 19.6445C44.9975 19.0104 45.4792 18.0956 45.7428 16.9023H49.6545V16.9002Z" fill="#1B1B1B"/>
<path d="M57.196 23.7484C56.0698 23.7484 55.0671 23.5676 54.1839 23.2079C53.3027 22.8482 52.5554 22.3472 51.948 21.7027C51.3386 21.0582 50.8733 20.2807 50.5563 19.3721C50.2351 18.4636 50.0766 17.4678 50.0766 16.3888C50.0766 15.3098 50.2392 14.2869 50.5686 13.3784C50.896 12.4698 51.3695 11.6923 51.9892 11.0478C52.6089 10.4033 53.3542 9.90852 54.2271 9.55716C55.1001 9.20789 56.0883 9.03118 57.196 9.03118C58.3036 9.03118 59.2589 9.20581 60.1215 9.55716C60.9842 9.90852 61.7192 10.3992 62.3306 11.0353C62.94 11.6694 63.4095 12.4407 63.7368 13.3513C64.0662 14.2599 64.2289 15.2744 64.2289 16.3908C64.2289 17.5073 64.0662 18.5177 63.7368 19.4179C63.4095 20.3181 62.94 21.0894 62.3306 21.7339C61.7212 22.3784 60.9801 22.8753 60.1071 23.2266C59.2342 23.5759 58.2645 23.7526 57.196 23.7526V23.7484ZM57.196 20.6507C59.4277 20.6507 60.5436 19.2308 60.5436 16.3888C60.5436 13.5468 59.4277 12.1559 57.196 12.1559C54.9642 12.1559 53.8483 13.5676 53.8483 16.3888C53.8483 19.21 54.9642 20.6507 57.196 20.6507Z" fill="#1B1B1B"/>
<path d="M65.4106 23.3804V4.28482H69.0691V23.3804H65.4106Z" fill="#1B1B1B"/>
<path d="M70.5885 7.72348V4.28482H74.2471V7.72348H70.5885ZM70.5885 23.3804V9.40124H74.2471V23.3804H70.5885Z" fill="#1B1B1B"/>
<path d="M75.7932 23.3804V4.28482H79.4517V23.3804H75.7932Z" fill="#1B1B1B"/>
<path d="M80.8867 23.3804V4.28482H84.5452V23.3804H80.8867Z" fill="#1B1B1B"/>
<path d="M94.6458 23.3804C94.5326 23.0208 94.4584 22.605 94.4214 22.1289C93.989 22.6216 93.4167 23.0145 92.7043 23.3098C91.992 23.6029 91.1664 23.7505 90.2296 23.7505C88.6361 23.7505 87.4667 23.395 86.7276 22.684C85.9864 21.973 85.6158 21.0499 85.6158 19.9148C85.6158 18.9106 85.7744 18.1102 86.0955 17.5135C86.4147 16.9168 86.8552 16.447 87.4173 16.1081C87.9794 15.7671 88.6505 15.5156 89.4288 15.3555C90.2091 15.1954 91.0573 15.0478 91.9755 14.9148C92.8937 14.7817 93.5135 14.6071 93.8326 14.3888C94.1517 14.1725 94.3123 13.815 94.3123 13.3222C94.3123 12.8669 94.1023 12.5114 93.6802 12.2557C93.2582 12 92.6899 11.8732 91.9776 11.8732C91.1335 11.8732 90.5282 12.0624 90.1617 12.4407C89.7952 12.8191 89.5667 13.3222 89.472 13.948H86.0667C86.0852 13.2287 86.2026 12.5655 86.4188 11.9584C86.6329 11.3513 86.9808 10.8316 87.4585 10.395C87.9382 9.95841 88.562 9.62369 89.3299 9.38669C90.0979 9.15176 91.0367 9.03326 92.1443 9.03326C93.252 9.03326 94.1558 9.15592 94.9134 9.40332C95.6752 9.65072 96.2826 10.0041 96.7417 10.4678C97.2029 10.9335 97.5343 11.5114 97.7402 12.2017C97.9461 12.894 98.049 13.6757 98.049 14.5468V23.3846H94.6437L94.6458 23.3804ZM94.3926 16.5343C94.2052 16.7235 93.9334 16.8753 93.5773 16.9896C93.2211 17.1019 92.7043 17.2266 92.0311 17.3576C90.9811 17.5676 90.2585 17.8316 89.8632 18.1538C89.4699 18.4761 89.2723 18.9397 89.2723 19.5468C89.2723 20.5883 89.8632 21.1081 91.0449 21.1081C91.5123 21.1081 91.9487 21.027 92.3543 20.8669C92.7579 20.7048 93.1058 20.4886 93.394 20.2121C93.6864 19.9376 93.9211 19.6154 94.0982 19.2453C94.2752 18.8753 94.3658 18.4823 94.3658 18.0665L94.3926 16.5322V16.5343Z" fill="#1B1B1B"/>
<path d="M107.841 13.6341C107.746 12.9896 107.507 12.5218 107.124 12.2287C106.739 11.9335 106.153 11.7879 105.366 11.7879C104.58 11.7879 104.048 11.8794 103.663 12.0582C103.278 12.2391 103.085 12.5468 103.085 12.9834C103.085 13.3617 103.276 13.6632 103.663 13.8919C104.048 14.1206 104.606 14.3368 105.337 14.5447C106.538 14.8856 107.55 15.1746 108.376 15.4116C109.202 15.6486 109.862 15.9272 110.361 16.2495C110.857 16.5717 111.213 16.973 111.429 17.4574C111.643 17.9418 111.752 18.5904 111.752 19.4054C111.752 20.6549 111.238 21.6923 110.204 22.5156C109.173 23.3389 107.645 23.7526 105.619 23.7526C104.625 23.7526 103.723 23.6382 102.918 23.4116C102.111 23.185 101.421 22.8586 100.849 22.4324C100.277 22.0062 99.8361 21.4948 99.5273 20.8981C99.2184 20.3014 99.0537 19.6341 99.0352 18.896H102.807C102.807 19.5592 103.064 20.0707 103.581 20.4303C104.096 20.79 104.767 20.9688 105.593 20.9688C106.286 20.9688 106.883 20.8586 107.38 20.6424C107.876 20.4262 108.125 20.0873 108.125 19.6341C108.125 19.1227 107.942 18.7526 107.577 18.526C107.211 18.2973 106.653 18.0998 105.901 17.9293C104.551 17.6278 103.462 17.3098 102.636 16.9771C101.81 16.6466 101.168 16.2807 100.709 15.8836C100.248 15.4865 99.939 15.0499 99.7805 14.578C99.6199 14.1039 99.5417 13.5738 99.5417 12.9875C99.5417 12.4574 99.6508 11.9563 99.8649 11.4802C100.081 11.0083 100.423 10.5904 100.892 10.2287C101.36 9.86901 101.971 9.58003 102.72 9.36382C103.47 9.1476 104.39 9.03741 105.477 9.03741C107.466 9.03741 108.92 9.4449 109.84 10.2599C110.758 11.0748 111.265 12.2017 111.359 13.6403H107.841V13.6341Z" fill="#1B1B1B"/>
<path d="M115.79 23.3804V4.51349H124.991C126.829 4.51349 128.225 4.97295 129.182 5.88979C130.14 6.80871 130.617 8.06443 130.617 9.65695C130.617 10.4698 130.403 11.1954 129.971 11.8295C129.539 12.4636 128.995 12.9147 128.338 13.1788C128.732 13.3305 129.102 13.5239 129.45 13.7609C129.796 13.9979 130.097 14.2994 130.35 14.6694C130.603 15.0395 130.805 15.474 130.953 15.9771C131.103 16.4802 131.179 17.0707 131.179 17.7526C131.179 19.4761 130.607 20.8441 129.462 21.8586C128.318 22.8732 126.564 23.3784 124.2 23.3784H115.788L115.79 23.3804ZM119.562 7.78169V11.8732H124.486C126.061 11.8732 126.85 11.1933 126.85 9.82742C126.85 9.10809 126.648 8.58834 126.247 8.26609C125.843 7.94385 125.182 7.78169 124.262 7.78169H119.562ZM124.513 20.1705C125.415 20.1705 126.117 19.9147 126.623 19.4033C127.13 18.8919 127.383 18.2474 127.383 17.4698C127.383 16.6362 127.134 16.0312 126.638 15.6528C126.139 15.2744 125.452 15.0852 124.569 15.0852H119.562V20.1705H124.513Z" fill="#F5333F"/>
<path d="M131.912 23.3804V9.40123H135.347V11.0769C135.645 10.605 135.96 10.2349 136.289 9.9688C136.617 9.70476 136.954 9.50102 137.302 9.35965C137.648 9.21828 138 9.1268 138.357 9.08938C138.713 9.04988 139.079 9.03325 139.454 9.03325H139.931V12.8108C139.594 12.7547 139.258 12.7256 138.919 12.7256C136.687 12.7256 135.571 13.8524 135.571 16.106V23.3804H131.912Z" fill="#F5333F"/>
<path d="M148.935 23.3804C148.821 23.0208 148.747 22.605 148.71 22.1289C148.278 22.6216 147.706 23.0145 146.993 23.3098C146.281 23.6029 145.455 23.7505 144.519 23.7505C142.925 23.7505 141.756 23.395 141.016 22.684C140.275 21.973 139.905 21.0499 139.905 19.9147C139.905 18.9106 140.063 18.1102 140.384 17.5135C140.704 16.9168 141.144 16.447 141.706 16.1081C142.268 15.7671 142.939 15.5156 143.718 15.3555C144.498 15.1954 145.346 15.0478 146.264 14.9147C147.183 14.7817 147.802 14.6071 148.121 14.3888C148.441 14.1725 148.601 13.815 148.601 13.3222C148.601 12.8669 148.391 12.5114 147.969 12.2557C147.547 12 146.979 11.8732 146.266 11.8732C145.422 11.8732 144.817 12.0624 144.451 12.4407C144.084 12.8191 143.856 13.3222 143.761 13.948H140.356C140.374 13.2287 140.491 12.5655 140.708 11.9584C140.922 11.3513 141.27 10.8316 141.747 10.395C142.227 9.9584 142.851 9.62368 143.619 9.38668C144.387 9.15175 145.326 9.03325 146.433 9.03325C147.541 9.03325 148.445 9.15591 149.202 9.40331C149.964 9.65071 150.571 10.0041 151.031 10.4678C151.49 10.9314 151.823 11.5114 152.029 12.2016C152.235 12.894 152.338 13.6757 152.338 14.5468V23.3846H148.933L148.935 23.3804ZM148.681 16.5343C148.494 16.7235 148.222 16.8752 147.866 16.9896C147.51 17.1019 146.993 17.2266 146.32 17.3576C145.27 17.5675 144.547 17.8316 144.152 18.1538C143.759 18.4761 143.561 18.9397 143.561 19.5468C143.561 20.5883 144.152 21.1081 145.334 21.1081C145.801 21.1081 146.238 21.027 146.643 20.8669C147.047 20.7048 147.395 20.4885 147.683 20.212C147.975 19.9376 148.21 19.6154 148.387 19.2453C148.564 18.8752 148.655 18.4823 148.655 18.0665L148.681 16.5322V16.5343Z" fill="#F5333F"/>
<path d="M162.667 23.3804V14.9127C162.667 13.8337 162.488 13.1039 162.132 12.7256C161.776 12.3472 161.166 12.158 160.303 12.158C158.409 12.158 157.462 13.2287 157.462 15.368V23.3804H153.804V9.40123H157.293V11.447C157.724 10.6507 158.296 10.0499 159.011 9.64239C159.723 9.23491 160.643 9.03325 161.769 9.03325C162.426 9.03325 163.036 9.13096 163.598 9.33054C164.16 9.53013 164.643 9.82742 165.047 10.2245C165.451 10.6237 165.768 11.1102 166.004 11.6881C166.237 12.2682 166.354 12.9335 166.354 13.6923V23.3804H162.667Z" fill="#F5333F"/>
<path d="M177.41 23.3804L177.383 21.6757C176.539 23.0582 175.255 23.7505 173.527 23.7505C172.646 23.7505 171.841 23.58 171.108 23.2391C170.375 22.8981 169.747 22.4054 169.222 21.7609C168.697 21.1164 168.283 20.3305 167.985 19.4033C167.684 18.474 167.534 17.4241 167.534 16.2495C167.534 15.1892 167.66 14.2183 167.913 13.3368C168.166 12.4553 168.537 11.6944 169.025 11.0499C169.513 10.4054 170.108 9.91058 170.812 9.55923C171.516 9.20996 172.317 9.03325 173.216 9.03325C174.923 9.03325 176.292 9.7609 177.326 11.2204V4.28481H180.927V23.3804H177.408H177.41ZM174.371 20.738C175.253 20.738 175.988 20.368 176.58 19.6299C177.171 18.8919 177.466 17.9251 177.466 16.7318C177.466 13.7006 176.443 12.185 174.398 12.185C172.354 12.185 171.246 13.6258 171.246 16.5052C171.246 17.7567 171.538 18.7734 172.119 19.5592C172.7 20.3451 173.451 20.7401 174.371 20.7401V20.738Z" fill="#F5333F"/>
<path d="M182.475 7.72347V4.28481H186.133V7.72347H182.475ZM182.475 23.3804V9.40123H186.133V23.3804H182.475Z" fill="#F5333F"/>
<path d="M196.543 23.3804V14.9127C196.543 13.8337 196.364 13.1039 196.007 12.7256C195.651 12.3472 195.042 12.158 194.179 12.158C192.285 12.158 191.338 13.2287 191.338 15.368V23.3804H187.68V9.40123H191.169V11.447C191.6 10.6507 192.172 10.0499 192.886 9.64239C193.599 9.23491 194.519 9.03325 195.645 9.03325C196.302 9.03325 196.911 9.13096 197.473 9.33054C198.035 9.53013 198.519 9.82742 198.923 10.2245C199.326 10.6237 199.643 11.1102 199.88 11.6881C200.113 12.2682 200.23 12.9335 200.23 13.6923V23.3804H196.543Z" fill="#F5333F"/>
<path d="M211.342 21.5052C211.08 22.1289 210.606 22.6174 209.921 22.9688C209.235 23.3181 208.443 23.4948 207.543 23.4948C206.398 23.4948 205.439 23.291 204.659 22.8836C203.88 22.4761 203.252 21.9418 202.775 21.2786C202.295 20.6154 201.947 19.8482 201.733 18.9771C201.519 18.106 201.41 17.2141 201.41 16.3056C201.41 15.2266 201.568 14.237 201.887 13.3368C202.207 12.4366 202.639 11.6694 203.182 11.0353C203.726 10.4012 204.364 9.90851 205.095 9.55715C205.828 9.20788 206.614 9.03117 207.459 9.03117C209.184 9.03117 210.479 9.73179 211.342 11.133V9.39915H215V23.5218C215 24.5821 214.821 25.5156 214.467 26.3201C214.111 27.1247 213.623 27.7983 213.003 28.3389C212.383 28.8773 211.652 29.291 210.808 29.5738C209.964 29.8586 209.062 30 208.107 30C207.152 30 206.26 29.8628 205.435 29.5863C204.607 29.3118 203.901 28.9231 203.31 28.422C202.719 27.9189 202.254 27.3098 201.918 26.5883C201.581 25.869 201.412 25.054 201.412 24.1455H204.817C204.817 24.9979 205.093 25.6569 205.647 26.1206C206.201 26.5842 206.936 26.817 207.856 26.817C208.83 26.817 209.657 26.5468 210.331 26.0062C211.006 25.4678 211.344 24.7318 211.344 23.8046V21.5031L211.342 21.5052ZM208.332 20.5946C209.231 20.5946 209.977 20.2495 210.567 19.5572C211.158 18.8648 211.453 17.9231 211.453 16.7297C211.453 13.7359 210.413 12.2391 208.329 12.2391C206.246 12.2391 205.206 13.659 205.206 16.501C205.206 17.7526 205.503 18.7463 206.092 19.4844C206.682 20.2224 207.428 20.5925 208.329 20.5925L208.332 20.5946Z" fill="#F5333F"/>
</svg>
