<svg width="48" height="48" viewBox="0 0 48 48" fill="none" xmlns="http://www.w3.org/2000/svg">
<path d="M26.6495 21.3505L10.8812 37.1188M12.5829 25.675L4.85931 23.8506C4.00956 23.6499 3.71069 22.595 4.32626 21.9772L10.4686 15.8349C10.8812 15.4223 11.441 15.1858 12.0276 15.1814L18.9527 15.1212M27.6755 7.19684C32.8298 10.7118 37.2882 15.1702 40.8032 20.3245M22.3227 35.4171L24.1471 43.1407C24.3479 43.9904 25.4028 44.2893 26.0206 43.6737L32.1629 37.5314C32.5755 37.1188 32.8119 36.559 32.8164 35.9724L32.8766 29.0473M42.1257 16.7002L43.9278 8.02875C44.4185 5.66907 42.3309 3.58149 39.9713 4.07216L31.2998 5.87426C28.746 6.40508 26.4042 7.66967 24.562 9.51414L17.4472 16.6266C14.7329 19.3409 12.9665 22.8604 12.4089 26.6586L12.3844 26.8214C12.032 29.2458 12.8439 31.6925 14.5746 33.4254C16.3053 35.1561 18.7542 35.968 21.1786 35.6134L21.3414 35.5888C25.1396 35.0335 28.6591 33.2648 31.3734 30.5505L38.4859 23.438C40.3303 21.5958 41.5949 19.254 42.1257 16.7002Z" stroke="#F5333F" stroke-width="3" stroke-linecap="round" stroke-linejoin="round"/>
</svg>
