<svg width="20" height="19" viewBox="0 0 20 19" fill="none" xmlns="http://www.w3.org/2000/svg">
<path d="M9.071 0.612344C9.41474 -0.204115 10.5855 -0.204114 10.9292 0.612346L12.958 5.43123C13.103 5.77543 13.4307 6.01061 13.8068 6.0404L19.0728 6.45748C19.965 6.52814 20.3268 7.62813 19.647 8.2034L15.6349 11.5987C15.3483 11.8412 15.2231 12.2218 15.3107 12.5843L16.5365 17.661C16.7441 18.5211 15.797 19.201 15.0331 18.7401L10.5247 16.0196C10.2026 15.8252 9.79762 15.8252 9.4756 16.0196L4.96711 18.7401C4.20323 19.201 3.25608 18.5211 3.46376 17.661L4.68954 12.5843C4.7771 12.2218 4.65194 11.8412 4.36538 11.5987L0.353184 8.2034C-0.326596 7.62813 0.0351899 6.52814 0.927413 6.45748L6.19348 6.0404C6.56962 6.01061 6.89728 5.77543 7.04219 5.43123L9.071 0.612344Z" fill="#F5333F"/>
</svg>
